# xmcd
#
# Track frame offsets: 
#        150
#        20208
#        59481
#        84966
#        95777
#        133095
#
# Disc length: 2229 seconds
#
# Revision: 3
# Processed by: cddbd v1.5.2PL0 Copyright (c) Steve Scherf et al.
# Submitted via: ExactAudioCopy v0.99pb4
#
DISCID=5108b306
DTITLE=Invisible - Invisible
DYEAR=1974
DGENRE=Rock nacional
TTITLE0=Jugo De Lúcuma
TTITLE1=El Diluvio Y La Pasajera
TTITLE2=Suspensión
TTITLE3=Tema De Elmo Lesto
TTITLE4=Azafata Del Tren Fantasma
TTITLE5=Irregular
EXTD=
EXTT0=
EXTT1=
EXTT2=
EXTT3=
EXTT4=
EXTT5=
PLAYORDER=
